<svg xmlns="http://www.w3.org/2000/svg" viewBox="0 0 476.22 476.22">
  <path fill="#0e42d2" d="M389.98,400.6c-64.58,76.59-176.66,93.98-261.1,38.54-57.75-37.91-92.29-103.74-87.69-173.54,1.28-19.35,9.54-58.77,33.33-61.44,20.49-2.29,43.2,14.41,62.99,21.14,64.93,22.1,150.88,21.39,214.51-4.81,17.24-7.1,39.23-23.9,58.05-13.31,25.61,14.41,27.13,67.07,24.38,92.75-3.94,36.78-20.9,72.7-44.47,100.65ZM150.91,269c-17.4-4.01-34.19-9.87-50.5-17.04-2.56-1.12-15.17-8.19-16.64-6.83-23.51,92.25,48.81,179.87,140.64,188.01,3.68.33,9,.72,12.64.79,3.76.07,7.18-.41,10.86-.78-.24-3.7-1.05-7.05-.77-10.85,1.3-17.71,28.61-26.36,26.88-43.25-.89-8.76-14.85-11.03-22.02-11.55-8.23-.6-17.94,1.77-25.24-3.11-5.39-3.61-5.08-10.32-7.37-15.76-4.74-11.26-15.86-17.54-27.79-18.47-22.55-1.77-68.52,7.5-81.87-16.63-11.77-21.27,12.24-35.1,29.25-40.42,3.38-1.06,7.52-1.31,10.88-2.55,1.03-.38,1.28.27,1.04-1.56ZM391.83,245.21c-1.03-.58-12.51,5.5-14.65,6.42-20.82,8.92-42.01,16.02-64.2,20.87-10.31,2.25-21.7,3.15-31.66,5.65-19.17,4.82-17.59,22.78-.42,29.11,10.27,3.78,25.34,3.94,36.56,5.97,23.56,4.26,56.74,11.28,53.56,41.93-.31,2.98-2.13,5.86-2.26,8.2-.08,1.48.18,1.21,1.5,1.13,5.18-9.87,11.46-19.09,15.7-29.46,7.55-18.44,12.19-42.75,11.17-62.68-.19-3.67-2.95-25.81-5.31-27.15Z"/>
  <path fill="#0e42d2" d="M278.22,21.54c4.79,5.69,9.27,14.39,11.84,21.37.67,1.8,1.49,7.86,2.59,8.61,1.49,1.01,17.78-3.63,21.39-4.05,71.76-8.37,101.88,65.14,44.46,110.3-41.92,32.98-84.43,32.67-135.62,31.41-47.74-1.18-111.25-13.52-129.97-64.78-19.66-53.81,31.01-83.19,77.15-58.5,2,1.07,11.58,7.79,12.54,7.59,1.57-.32,1.05-4.62,1.34-6.14,3.75-19.76,11.37-39.47,27.8-52.04,20.82-15.93,49.31-14.16,66.47,6.23ZM256.71,71.1c1.07-24.31-18.03-42.71-30.8-12.52-5.88,13.9-7.77,32.56-3.36,47,1.73.46,1.24-.41,1.7-.95,10.15-11.8,19.02-25.11,32.46-33.52ZM340.18,123.96c10.12-10.37,17.92-27.48.94-35.85-29-14.31-83.74,17.89-87.91,49.24-1.6,11.97,2.2,14.36,13.71,14.53,21.84.32,57.86-12.13,73.26-27.92ZM173.64,117.92c-4.77-6.36-9.81-11.55-16.53-15.93-7.07-4.62-24.6-13.3-29.47-2.16-3.94,9.02,6.8,23.05,13.43,28.86,12.36,10.83,29.63,16.76,45.66,19.42-.28-11.02-6.62-21.58-13.08-30.19Z"/>
</svg>
